<svg width="76" height="28" viewBox="0 0 76 28" fill="none" xmlns="http://www.w3.org/2000/svg">
<rect x="0.5" width="75" height="28" rx="12" fill="#E5E7EB"/>
<path d="M27.1719 11.4929C27.1188 11.0223 26.9001 10.6577 26.5156 10.3991C26.1312 10.1373 25.6473 10.0064 25.0639 10.0064C24.6463 10.0064 24.285 10.0727 23.9801 10.2053C23.6752 10.3345 23.4382 10.5135 23.2692 10.7422C23.1035 10.9676 23.0206 11.2244 23.0206 11.5128C23.0206 11.7547 23.0769 11.9635 23.1896 12.1392C23.3056 12.3149 23.4564 12.4624 23.642 12.5817C23.831 12.6977 24.0331 12.7955 24.2486 12.875C24.464 12.9512 24.6712 13.0142 24.87 13.0639L25.8643 13.3224C26.1892 13.402 26.5223 13.5097 26.8636 13.6456C27.205 13.7815 27.5215 13.9605 27.8132 14.1825C28.1049 14.4046 28.3402 14.6797 28.5192 15.0078C28.7015 15.3359 28.7926 15.7287 28.7926 16.1861C28.7926 16.7628 28.6435 17.2749 28.3452 17.7223C28.0502 18.1697 27.621 18.5227 27.0575 18.7812C26.4974 19.0398 25.8196 19.169 25.0241 19.169C24.2618 19.169 23.6023 19.0481 23.0455 18.8061C22.4886 18.5642 22.0528 18.2211 21.7379 17.777C21.4231 17.3295 21.2491 16.7992 21.2159 16.1861H22.7571C22.7869 16.554 22.9063 16.8606 23.1151 17.1058C23.3272 17.3478 23.5973 17.5284 23.9254 17.6477C24.2569 17.7637 24.6198 17.8217 25.0142 17.8217C25.4484 17.8217 25.8345 17.7538 26.1726 17.6179C26.514 17.4787 26.7824 17.2865 26.978 17.0412C27.1735 16.7926 27.2713 16.5026 27.2713 16.1712C27.2713 15.8696 27.1851 15.6226 27.0128 15.4304C26.8438 15.2382 26.6134 15.0791 26.3217 14.9531C26.0334 14.8272 25.7069 14.7161 25.3423 14.62L24.1392 14.2919C23.3239 14.0698 22.6776 13.7434 22.2003 13.3125C21.7263 12.8816 21.4893 12.3116 21.4893 11.6023C21.4893 11.0156 21.6484 10.5036 21.9666 10.0661C22.2848 9.62855 22.7157 9.28883 23.2592 9.04688C23.8028 8.80161 24.416 8.67898 25.0987 8.67898C25.7881 8.67898 26.3963 8.79995 26.9233 9.0419C27.4536 9.28385 27.8712 9.61695 28.1761 10.0412C28.4811 10.4621 28.6402 10.946 28.6534 11.4929H27.1719ZM31.8762 16.4098L31.8663 14.5952H32.1248L35.1674 11.3636H36.9473L33.4771 15.0426H33.2434L31.8762 16.4098ZM30.5091 19V8.81818H31.9956V19H30.5091ZM35.3315 19L32.5971 15.3707L33.6213 14.3317L37.1561 19H35.3315ZM38.302 19V11.3636H39.7885V19H38.302ZM39.0527 10.1854C38.7942 10.1854 38.5721 10.0992 38.3865 9.92685C38.2042 9.75118 38.1131 9.54238 38.1131 9.30043C38.1131 9.05516 38.2042 8.84635 38.3865 8.67401C38.5721 8.49834 38.7942 8.41051 39.0527 8.41051C39.3113 8.41051 39.5317 8.49834 39.714 8.67401C39.8996 8.84635 39.9924 9.05516 39.9924 9.30043C39.9924 9.54238 39.8996 9.75118 39.714 9.92685C39.5317 10.0992 39.3113 10.1854 39.0527 10.1854ZM43.2749 8.81818V19H41.7884V8.81818H43.2749ZM46.7612 8.81818V19H45.2747V8.81818H46.7612ZM54.4833 13.228L53.136 13.4666C53.0797 13.2943 52.9902 13.1302 52.8675 12.9744C52.7482 12.8187 52.5858 12.6911 52.3803 12.5916C52.1748 12.4922 51.918 12.4425 51.6097 12.4425C51.1888 12.4425 50.8375 12.5369 50.5558 12.7259C50.274 12.9115 50.1332 13.1518 50.1332 13.4467C50.1332 13.7019 50.2276 13.9074 50.4165 14.0632C50.6055 14.219 50.9104 14.3466 51.3313 14.446L52.5444 14.7244C53.247 14.8868 53.7707 15.1371 54.1154 15.4751C54.4601 15.8132 54.6325 16.2524 54.6325 16.7926C54.6325 17.25 54.4999 17.6577 54.2347 18.0156C53.9729 18.3703 53.6067 18.6487 53.136 18.8509C52.6687 19.053 52.1268 19.1541 51.5103 19.1541C50.6552 19.1541 49.9575 18.9718 49.4173 18.6072C48.877 18.2393 48.5456 17.7173 48.4229 17.0412L49.8597 16.8224C49.9492 17.197 50.1332 17.4804 50.4116 17.6726C50.69 17.8615 51.0529 17.956 51.5004 17.956C51.9876 17.956 52.377 17.8549 52.6687 17.6527C52.9603 17.4472 53.1062 17.197 53.1062 16.902C53.1062 16.6634 53.0167 16.4628 52.8377 16.3004C52.6621 16.138 52.3919 16.0154 52.0273 15.9325L50.7347 15.6491C50.0221 15.4867 49.4951 15.2282 49.1538 14.8736C48.8157 14.5189 48.6467 14.0698 48.6467 13.5263C48.6467 13.0755 48.7726 12.6811 49.0245 12.343C49.2764 12.005 49.6244 11.7415 50.0685 11.5526C50.5127 11.3603 51.0214 11.2642 51.5948 11.2642C52.4201 11.2642 53.0697 11.4432 53.5437 11.8011C54.0176 12.1558 54.3308 12.6314 54.4833 13.228Z" fill="#4B5563"/>
</svg>
